<svg xmlns="http://www.w3.org/2000/svg" height="263.44" width="657.16"><g fill="#000"><path d="M378.477 165.76c15.023 0 26.544-11.445 28.711-26.876 2.024-14.41-6.276-25.853-21.301-25.853-14.919 0-26.439 11.442-28.464 25.853-2.17 15.43 6.136 26.876 21.054 26.876zm8.946-64.377c22.641-.412 36.457 14.713 33.197 37.91-3.172 22.583-21.241 37.708-43.881 38.115-22.279 0-36.094-15.121-32.92-37.707 3.26-23.196 21.326-38.318 43.604-38.318M448.16 134.592c7.357 0 16.92-.41 18.297-10.219 1.25-8.892-7.057-10.118-14.008-10.118h-9.196l-2.86 20.337zm-16.232-31.373h24.323c13.998 0 25.98 4.905 23.729 20.95-2.56 18.19-16.613 21.457-31.941 21.457h-9.196l-4.207 29.945h-12.877l10.169-72.352M524.367 118.753c-2.216-3.885-6.864-5.722-11.875-5.722-5.924 0-12.221 2.657-13.157 9.3-2.038 14.509 33.462 6.232 29.841 31.984-2.184 15.533-15.51 23.093-29.713 23.093-8.99 0-17.395-2.754-22.328-9.807l11.026-9.404c2.495 4.804 7.526 7.563 13.247 7.563 5.925 0 13.13-3.268 14.063-9.913 2.228-15.84-33.387-6.744-29.754-32.599 2.096-14.92 16.358-21.865 29.748-21.865 7.558 0 14.818 2.142 19.695 7.456l-10.793 9.914M543.717 103.219h47.928l-1.64 11.649H554.96l-2.5 17.782h33.209l-1.636 11.653h-33.21l-2.76 19.617h36.893l-1.639 11.65h-49.764l10.165-72.351M650.725 148.999c-2.457 17.474-16.566 28.41-33.118 28.41-16.555 0-27.591-10.936-25.128-28.41l6.428-45.78h12.877l-6.376 45.372c-1.005 7.154 1.556 16.556 13.923 16.556 12.364 0 17.57-9.402 18.576-16.556l6.376-45.372h12.873l-6.43 45.78M382.475 203.616c-2.214-3.883-6.858-5.725-11.866-5.725-5.926 0-12.229 2.656-13.164 9.298-2.036 14.514 33.462 6.235 29.846 31.991-2.186 15.53-15.511 23.09-29.716 23.09-8.992 0-17.392-2.758-22.33-9.809l11.031-9.402c2.49 4.802 7.52 7.562 13.244 7.562 5.93 0 13.13-3.27 14.064-9.913 2.227-15.839-33.388-6.741-29.753-32.597 2.094-14.92 16.356-21.87 29.745-21.87 7.56 0 14.82 2.148 19.693 7.46l-10.794 9.915M403.77 188.083h47.927l-1.64 11.65h-35.049l-2.5 17.778h33.213l-1.637 11.652h-33.213l-2.758 19.62h36.892l-1.637 11.648H393.6l10.17-72.348M462.119 188.083h46.698l-1.636 11.65h-33.826l-2.667 19.005h31.883l-1.638 11.65h-31.885l-4.224 30.043h-12.875l10.17-72.348M532.921 219.454c7.356 0 16.92-.409 18.295-10.218 1.25-8.89-7.06-10.119-14.007-10.119h-9.194l-2.86 20.337zm-16.233-31.371h24.317c14.004 0 25.988 4.904 23.73 20.95-2.555 18.188-16.604 21.458-31.934 21.458h-9.198l-4.207 29.94h-12.875l10.167-72.348M600.684 250.621c15.023 0 26.544-11.44 28.713-26.874 2.026-14.41-6.278-25.856-21.302-25.856-14.919 0-26.44 11.446-28.464 25.856-2.171 15.433 6.136 26.874 21.053 26.874zm8.945-64.38c22.643-.408 36.458 14.716 33.2 37.914-3.176 22.585-21.241 37.708-43.884 38.116-22.274 0-36.093-15.124-32.917-37.708 3.259-23.196 21.324-38.321 43.601-38.321M154.868 239.737c0-11.528 4.493-37.429 40.052-61.906l1.935-1.334.037-2.347c.577-36.963 29.136-58.013 37.012-63.12 8.384 4.703 38.025 24.049 38.025 62.435 0 .331 0 .665-.005.998l-.041 3.1 2.868 1.179c32.49 13.315 38.624 54.296 39.686 65.129-8.489 4.688-40.637 19.536-78.006-.66l-2.239-1.21-2.204 1.268c-38.205 22.03-69.785 5.22-76.884.82a37.476 37.476 0 01-.236-4.352zm76.67-137.942c-1.727.948-41.535 23.44-43.594 69.854-37.043 26.314-42.168 54.671-42.168 68.177 0 4.662.601 7.553.697 7.982l.382 1.704 1.422 1.013c1.607 1.146 39.343 27.264 86.056 1.817 46.596 23.736 85.694-1.069 87.36-2.158l2.163-1.408-.099-2.583c-.089-2.316-2.706-55.728-42.813-74.538-1.06-48.26-43.413-69.099-45.255-69.979l-2.106-1.004-2.046 1.123M204.907 42.796l-8.586-12.525-154.87 230.666 8.165.022 155.29-218.163M225.737 73.792l-8.584-12.525L83.088 260.95l8.436.016L225.737 73.792M183.956 12.523L175.371-.004 0 260.966l8.327.011L183.956 12.523"/></g></svg>
